<svg xmlns="http://www.w3.org/2000/svg" baseProfile="tiny" width="96" height="96" viewBox="0 0 96 96" id="share-facebook" x="14896"><path fill="#0F61A1" d="M48 16c-17.672 0-32 14.328-32 32 0 17.676 14.328 32 32 32 17.674 0 32-14.324 32-32 0-17.672-14.326-32-32-32z"/><path fill="#0E5687" d="M48 76.8c-17.672 0-32-12.892-32-28.8 0 17.676 14.328 32 32 32 17.674 0 32-14.324 32-32 0 15.908-14.326 28.8-32 28.8z"/><path fill="#FFF" d="M54.854 48.011h-4.485V64h-6.643V48.011h-3.16v-5.648h3.16v-3.656c0-2.617 1.241-6.707 6.702-6.707l4.923.02v5.484h-3.573c-.58 0-1.41.288-1.41 1.538v3.321h5.066l-.58 5.648z"/></svg>