<svg xmlns="http://www.w3.org/2000/svg" baseProfile="tiny" width="96" height="96" viewBox="0 0 96 96" id="share-email" x="14800"><path fill="#B6BBC1" d="M48 16c-17.672 0-32 14.328-32 32 0 17.676 14.328 32 32 32 17.674 0 32-14.324 32-32 0-17.672-14.326-32-32-32z"/><path fill="#9BA7B2" d="M48 76.8c-17.672 0-32-12.892-32-28.8 0 17.676 14.328 32 32 32 17.674 0 32-14.324 32-32 0 15.908-14.326 28.8-32 28.8z"/><g fill="#FFF"><path d="M63.847 63.388H31.805a5.344 5.344 0 0 1-5.34-5.336V36.686a5.344 5.344 0 0 1 5.34-5.336h32.042a5.344 5.344 0 0 1 5.34 5.336v21.366a5.344 5.344 0 0 1-5.34 5.336zM31.805 34.02a2.671 2.671 0 0 0-2.67 2.665v21.366a2.671 2.671 0 0 0 2.67 2.666h32.042a2.671 2.671 0 0 0 2.67-2.666V36.686a2.671 2.671 0 0 0-2.67-2.666H31.805z"/><path d="M47.826 50.04c-.27 0-.54-.083-.772-.246L32.37 39.113a1.335 1.335 0 1 1 1.543-2.179l13.914 10.134L61.74 36.934a1.335 1.335 0 1 1 1.544 2.179l-14.686 10.68a1.335 1.335 0 0 1-.772.246zM33.14 58.05a1.335 1.335 0 0 1-.944-2.279l5.34-5.34a1.335 1.335 0 1 1 1.889 1.887l-5.34 5.34a1.33 1.33 0 0 1-.945.392zM62.512 58.05a1.335 1.335 0 0 0 .944-2.279l-5.34-5.34a1.335 1.335 0 1 0-1.888 1.887l5.34 5.34c.26.261.603.392.944.392z"/></g></svg>